<svg width="200" height="80" viewBox="0 0 200 80" xmlns="http://www.w3.org/2000/svg">
  <!-- Background -->
  <rect width="200" height="80" fill="#2A5842" rx="8"/>
  
  <!-- Roofline with peak -->
  <polygon points="15,20 25,15 25,30 15,30" fill="#FFFFFF" opacity="0.95"/>
  
  <!-- Industrial smokestacks with smoke -->
  <!-- Left smokestack -->
  <rect x="30" y="22" width="7" height="14" fill="#FFFFFF" opacity="0.95"/>
  <rect x="30" y="20" width="7" height="2" fill="#FFFFFF" opacity="0.8"/>
  <!-- Smoke from left stack -->
  <path d="M33.5,20 Q30,15 28,12 Q26,9 28,6" stroke="#FFFFFF" stroke-width="1.5" fill="none" opacity="0.7" stroke-linecap="round"/>
  <path d="M33.5,20 Q36,16 38,13 Q40,10 38,7" stroke="#FFFFFF" stroke-width="1.5" fill="none" opacity="0.7" stroke-linecap="round"/>
  
  <!-- Right smokestack -->
  <rect x="42" y="22" width="7" height="14" fill="#FFFFFF" opacity="0.95"/>
  <rect x="42" y="20" width="7" height="2" fill="#FFFFFF" opacity="0.8"/>
  <!-- Smoke from right stack -->
  <path d="M45.5,20 Q42,15 40,12 Q38,9 40,6" stroke="#FFFFFF" stroke-width="1.5" fill="none" opacity="0.7" stroke-linecap="round"/>
  <path d="M45.5,20 Q48,16 50,13 Q52,10 50,7" stroke="#FFFFFF" stroke-width="1.5" fill="none" opacity="0.7" stroke-linecap="round"/>
  
  <!-- Main rounded rectangular building structure with thick border -->
  <rect x="15" y="35" width="170" height="40" rx="6" fill="none" stroke="#FFFFFF" stroke-width="3"/>
  
  <!-- Text FARMER -->
  <text x="25" y="55" font-family="Arial, sans-serif" font-size="14" font-weight="bold" fill="#FFFFFF">FARMER</text>
  
  <!-- Text LEAGUE. -->
  <text x="25" y="70" font-family="Arial, sans-serif" font-size="14" font-weight="bold" fill="#FFFFFF">LEAGUE.</text>
</svg>
